# xmcd CD database file
#
# Track frame offsets:
#	150
#	12005
#	23652
#	35000
#	46962
#	59185
#	71867
#	83600
#	94882
#	107160
#	118580
#	131990
#	145915
#	160280
#	173337
#	187372
#	199675
#	213672
#	225702
#	240522
#
# Disc length: 3391 seconds
#
# Revision: 0
# Processed by: cddbd v1.5.1PL0 Copyright (c) Steve Scherf et al.
# Submitted via: CDex 1.51
#
DISCID=230d3d14
DTITLE=Louis Armstrong - Starring Louis Armstrong - Disk 2
DYEAR=1998
DGENRE=Jazz
TTITLE0=Jubilee
TTITLE1=Let That Be A Lesson To You
TTITLE2=Love Walked In
TTITLE3=Mexican Swing
TTITLE4=My Walking Stick
TTITLE5=Naturally
TTITLE6=Satchel Mouth Swing
TTITLE7=Shadrack
TTITLE8=So Little Time (So Much To Do)
TTITLE9=Something Tells Me
TTITLE10=Struttin' With Some Barbeque
TTITLE11=Sweet As A Song
TTITLE12=This Song Is Ended
TTITLE13=The Trumpet Player's Lament
TTITLE14=True Confession
TTITLE15=When The Saints Go Marching In
TTITLE16=Hear Me Talkin' To Ya
TTITLE17=Jeepers Creepers
TTITLE18=Rockin' Chair
TTITLE19=What Is This Thing Called Swing?
EXTD=YEAR: 1998
EXTT0=
EXTT1=
EXTT2=
EXTT3=
EXTT4=
EXTT5=
EXTT6=
EXTT7=
EXTT8=
EXTT9=
EXTT10=
EXTT11=
EXTT12=
EXTT13=
EXTT14=
EXTT15=
EXTT16=
EXTT17=
EXTT18=
EXTT19=
PLAYORDER=
